<svg xmlns="http://www.w3.org/2000/svg" width="450" height="476" viewBox="0 0 450 476"><style>@import url(https://fonts.googleapis.com/css2?family=Roboto+Mono:wght@400;500;600&amp;display=swap);</style><rect width="450" height="476" fill="#020c13"/><line x1="330" x2="330" y1="84" y2="122" stroke="#637bff" stroke-width="2"/><polygon fill="#637bff" points="330 128 324 119 336 119"/><line x1="330" x2="330" y1="172" y2="210" stroke="#637bff" stroke-width="2"/><polygon fill="#637bff" points="330 216 324 207 336 207"/><line x1="330" x2="330" y1="260" y2="298" stroke="#637bff" stroke-width="2"/><polygon fill="#637bff" points="330 304 324 295 336 295"/><line x1="330" x2="330" y1="348" y2="386" stroke="#637bff" stroke-width="2"/><polygon fill="#637bff" points="330 392 324 383 336 383"/><line x1="150" x2="244" y1="150" y2="150" stroke="#637bff" stroke-width="2"/><polygon fill="#637bff" points="250 150 241 144 241 156"/><line x1="150" x2="244" y1="238" y2="238" stroke="#637bff" stroke-width="2"/><polygon fill="#637bff" points="250 238 241 232 241 244"/><rect width="160" height="44" x="250" y="40" fill="#181c1f" stroke="#637bff" stroke-width="2" rx="6"/><text x="330" y="62" fill="#fff" dominant-baseline="middle" font-family="Roboto Mono, Courier, monospace" font-size="13" font-weight="500" text-anchor="middle">x</text><rect width="160" height="44" x="250" y="128" fill="#1a3a5c" stroke="#637bff" stroke-width="2" rx="12"/><text x="330" y="150" fill="#fff" dominant-baseline="middle" font-family="Roboto Mono, Courier, monospace" font-size="13" font-weight="500" text-anchor="middle">matmul</text><rect width="160" height="44" x="250" y="216" fill="#1a3a5c" stroke="#637bff" stroke-width="2" rx="12"/><text x="330" y="238" fill="#fff" dominant-baseline="middle" font-family="Roboto Mono, Courier, monospace" font-size="13" font-weight="500" text-anchor="middle">add</text><rect width="160" height="44" x="250" y="304" fill="#1a3a5c" stroke="#637bff" stroke-width="2" rx="12"/><text x="330" y="326" fill="#fff" dominant-baseline="middle" font-family="Roboto Mono, Courier, monospace" font-size="13" font-weight="500" text-anchor="middle">relu</text><rect width="160" height="44" x="250" y="392" fill="#181c1f" stroke="#637bff" stroke-width="2" rx="6"/><text x="330" y="414" fill="#fff" dominant-baseline="middle" font-family="Roboto Mono, Courier, monospace" font-size="13" font-weight="500" text-anchor="middle">output</text><rect width="100" height="56" x="50" y="122" fill="#181c1f" stroke="#353d42" stroke-width="2" rx="6"/><text x="100" y="142" fill="#fff" dominant-baseline="middle" font-family="Roboto Mono, Courier, monospace" font-size="13" font-weight="600" text-anchor="middle">W</text><text x="100" y="160" fill="#9a9eaa" dominant-baseline="middle" font-family="Roboto Mono, Courier, monospace" font-size="11" font-weight="400" text-anchor="middle">weight</text><rect width="100" height="56" x="50" y="210" fill="#181c1f" stroke="#353d42" stroke-width="2" rx="6"/><text x="100" y="230" fill="#fff" dominant-baseline="middle" font-family="Roboto Mono, Courier, monospace" font-size="13" font-weight="600" text-anchor="middle">b</text><text x="100" y="248" fill="#9a9eaa" dominant-baseline="middle" font-family="Roboto Mono, Courier, monospace" font-size="11" font-weight="400" text-anchor="middle">weight</text><rect width="124.4" height="15" x="267.8" y="98.5" fill="#020c13" rx="3"/><text x="330" y="106" fill="#9a9eaa" dominant-baseline="middle" font-family="Roboto Mono, Courier, monospace" font-size="11" font-weight="400" text-anchor="middle">[&quot;batch&quot;, 3] f32</text><rect width="124.4" height="15" x="267.8" y="186.5" fill="#020c13" rx="3"/><text x="330" y="194" fill="#9a9eaa" dominant-baseline="middle" font-family="Roboto Mono, Courier, monospace" font-size="11" font-weight="400" text-anchor="middle">[&quot;batch&quot;, 2] f32</text><rect width="124.4" height="15" x="267.8" y="274.5" fill="#020c13" rx="3"/><text x="330" y="282" fill="#9a9eaa" dominant-baseline="middle" font-family="Roboto Mono, Courier, monospace" font-size="11" font-weight="400" text-anchor="middle">[&quot;batch&quot;, 2] f32</text><rect width="124.4" height="15" x="267.8" y="362.5" fill="#020c13" rx="3"/><text x="330" y="370" fill="#9a9eaa" dominant-baseline="middle" font-family="Roboto Mono, Courier, monospace" font-size="11" font-weight="400" text-anchor="middle">[&quot;batch&quot;, 2] f32</text><rect width="81.5" height="15" x="159.25" y="126.5" fill="#020c13" rx="3"/><text x="200" y="134" fill="#9a9eaa" dominant-baseline="middle" font-family="Roboto Mono, Courier, monospace" font-size="11" font-weight="400" text-anchor="middle">[3, 2] f32</text><rect width="60.05" height="15" x="169.975" y="214.5" fill="#020c13" rx="3"/><text x="200" y="222" fill="#9a9eaa" dominant-baseline="middle" font-family="Roboto Mono, Courier, monospace" font-size="11" font-weight="400" text-anchor="middle">[2] f32</text></svg>